# File produced by Open Asset Import Library (http://www.assimp.sf.net)
# (assimp v3.1.22885447)

mtllib Pick%20Up%20Boxes%20v2.mtl

# vertex positions
v -1.922559 0.109877 1.922559
v -2.403139 0.590457 1.922559
v -2.403139 0.590457 -1.922559
v -1.922559 0.109877 -1.922559
v -1.922559 0.590457 2.403139
v 1.922559 0.109877 1.922559
v 1.922559 0.590457 2.403139
v -1.922559 4.435575 2.403139
v -2.403139 4.435575 1.922559
v 2.403139 0.590457 1.922559
v 1.922559 0.109877 -1.922559
v 2.403139 0.590457 -1.922559
v 2.403139 4.435575 1.922559
v 1.922559 4.435575 2.403139
v -1.922559 4.916155 1.922559
v -1.922559 4.916155 -1.922559
v -2.403139 4.435575 -1.922559
v 1.922559 4.916155 1.922559
v 2.403139 4.435575 -1.922559
v 1.922559 4.916155 -1.922559
v -1.922559 4.435575 -2.403139
v -1.922559 0.590457 -2.403139
v 1.922559 4.435575 -2.403139
v 1.922559 0.590457 -2.403139

# UV coordinates
vt 0.339713 0.001967
vt 0.339713 0.039488
vt 0.039512 0.039488
vt 0.039512 0.001967
vt 0.384182 0.377208
vt 0.384182 0.339688
vt 0.684382 0.339688
vt 0.684382 0.377208
vt 0.377233 0.039488
vt 0.377233 0.339688
vt 0.339713 0.339688
vt 0.660287 0.418720
vt 0.660287 0.381200
vt 0.960488 0.381200
vt 0.960488 0.418720
vt 0.622767 0.418720
vt 0.660287 0.718921
vt 0.622767 0.718921
vt 0.339713 0.377209
vt 0.039512 0.377209
vt 0.039512 0.339688
vt 0.316431 0.418720
vt 0.316431 0.381200
vt 0.616632 0.381200
vt 0.616632 0.418720
vt 0.660287 0.756441
vt 0.960488 0.718921
vt 0.960488 0.756441
vt 0.001992 0.339688
vt 0.001992 0.039488
vt 0.316431 0.756441
vt 0.316431 0.718921
vt 0.616632 0.718921
vt 0.616632 0.756441
vt 0.998008 0.718921
vt 0.998008 0.418720
vt 0.384182 0.039488
vt 0.384182 0.001967
vt 0.684382 0.001967
vt 0.684382 0.039488
vt 0.010096 0.381200
vt 0.310296 0.381200
vt 0.310296 0.681400
vt 0.010096 0.681400
vt 0.001992 0.685391
vt 0.302192 0.685391
vt 0.302192 0.985592
vt 0.001992 0.985592

# vertex normals
vn -0.707107 -0.707107 0.000000
vn 0.000000 -0.707107 0.707107
vn -0.707107 0.000000 0.707107
vn 0.707107 -0.707107 0.000000
vn 0.707107 0.000000 0.707107
vn -0.707107 0.707107 0.000000
vn 0.000000 0.707106 0.707107
vn 0.707107 0.707107 0.000000
vn -0.707107 0.000000 -0.707107
vn 0.000000 0.707106 -0.707107
vn 0.707107 0.000000 -0.707107
vn 0.000000 -0.707107 -0.707107
vn 0.000000 0.000000 1.000000
vn 0.000000 1.000000 0.000000
vn 0.000000 0.000000 -1.000000
vn 0.000000 -1.000000 0.000000
vn 1.000000 0.000000 0.000000
vn -1.000000 0.000000 0.000000
vn -0.577350 -0.577350 0.577350
vn 0.577350 -0.577350 0.577350
vn -0.577350 0.577350 0.577350
vn 0.577350 0.577350 0.577350
vn -0.577350 0.577350 -0.577350
vn 0.577350 0.577350 -0.577350
vn -0.577350 -0.577350 -0.577350
vn 0.577350 -0.577350 -0.577350

# Mesh
g pCube1
usemtl lambert1
f 4/4/1 1/1/1 2/2/1
f 2/2/1 3/3/1 4/4/1
f 7/8/2 5/5/2 1/6/2
f 1/6/2 6/7/2 7/8/2
f 9/11/3 2/2/3 5/9/3
f 5/9/3 8/10/3 9/11/3
f 12/15/4 10/12/4 6/13/4
f 6/13/4 11/14/4 12/15/4
f 14/18/5 7/16/5 10/12/5
f 10/12/5 13/17/5 14/18/5
f 17/21/6 9/11/6 15/19/6
f 15/19/6 16/20/6 17/21/6
f 18/25/7 15/22/7 8/23/7
f 8/23/7 14/24/7 18/25/7
f 20/28/8 18/26/8 13/17/8
f 13/17/8 19/27/8 20/28/8
f 3/3/9 17/21/9 21/29/9
f 21/29/9 22/30/9 3/3/9
f 23/34/10 21/31/10 16/32/10
f 16/32/10 20/33/10 23/34/10
f 24/36/11 23/35/11 19/27/11
f 19/27/11 12/15/11 24/36/11
f 11/40/12 4/37/12 22/38/12
f 22/38/12 24/39/12 11/40/12
f 8/44/13 5/41/13 7/42/13
f 7/42/13 14/43/13 8/44/13
f 16/32/14 15/22/14 18/25/14
f 18/25/14 20/33/14 16/32/14
f 22/48/15 21/45/15 23/46/15
f 23/46/15 24/47/15 22/48/15
f 1/6/16 4/37/16 11/40/16
f 11/40/16 6/7/16 1/6/16
f 13/17/17 10/12/17 12/15/17
f 12/15/17 19/27/17 13/17/17
f 17/21/18 3/3/18 2/2/18
f 2/2/18 9/11/18 17/21/18
f 1/1/19 5/9/19 2/2/19
f 10/12/20 7/16/20 6/13/20
f 9/11/21 8/10/21 15/19/21
f 18/26/22 14/18/22 13/17/22
f 17/21/23 16/20/23 21/29/23
f 23/35/24 20/28/24 19/27/24
f 3/3/25 22/30/25 4/4/25
f 11/14/26 24/36/26 12/15/26
